<?xml version="1.0" encoding="utf-8"?>
<!-- Generator: Adobe Illustrator 21.1.0, SVG Export Plug-In . SVG Version: 6.00 Build 0)  -->
<svg version="1.1" id="Laag_1" xmlns="http://www.w3.org/2000/svg" xmlns:xlink="http://www.w3.org/1999/xlink" x="0px" y="0px"
	 viewBox="0 0 19.7 20.3" style="enable-background:new 0 0 19.7 20.3;" xml:space="preserve">
<style type="text/css">
	.st0{fill:#FFFFFF;}
</style>
<g id="ABT9II.tif">
	<g>
		<path class="st0" d="M0,12.8c0.1-0.2,0.2-0.4,0.3-0.6c0.3-0.4,0.7-0.5,1.2-0.3c0.4,0.1,0.7,0.4,0.8,0.9c0,0.1,0,0.2,0,0.3
			c0,1.5,0,3,0,4.5c0,0.1,0,0.2,0,0.3c5,0,10.1,0,15.1,0c0-0.1,0-0.2,0-0.2c0-1.5,0-3.1,0-4.6c0-0.7,0.4-1.1,1-1.2
			c0.7-0.1,1.3,0.4,1.3,1.1c0,2.1,0,4.1,0,6.2c0,0.5-0.2,0.8-0.6,1c0,0-0.1,0-0.1,0.1c-6.1,0-12.1,0-18.2,0
			c-0.4-0.2-0.7-0.5-0.8-0.9C0,17.2,0,15,0,12.8z"/>
		<path class="st0" d="M0,19.4c0.1,0.4,0.4,0.7,0.8,0.9c-0.3,0-0.5,0-0.8,0C0,20,0,19.7,0,19.4z"/>
		<path class="st0" d="M11,10.9c0.1-0.1,0.1-0.1,0.2-0.2c0.8-0.8,1.6-1.6,2.4-2.4c0.6-0.6,1.5-0.4,1.9,0.3c0.2,0.4,0.1,1-0.3,1.3
			c-1.1,1.2-2.3,2.3-3.4,3.4c-0.4,0.4-0.7,0.7-1.1,1.1c-0.5,0.5-1.2,0.5-1.7,0c-1.5-1.5-3-3-4.6-4.6C3.9,9.2,4.1,8.2,5,8
			c0.4-0.1,0.8,0,1.1,0.3C7,9.1,7.8,9.9,8.5,10.7c0,0,0.1,0.1,0.2,0.2c0-0.1,0-0.2,0-0.3c0-3.1,0-6.2,0-9.3c0-0.5,0.1-0.8,0.5-1.1
			C10-0.3,11,0.2,11,1.1c0,0.1,0,0.2,0,0.3c0,3.1,0,6.1,0,9.2C11,10.6,11,10.7,11,10.9z"/>
	</g>
</g>
</svg>
