<svg class="logo" viewBox="0 0 146 40" width="100" xmlns="http://www.w3.org/2000/svg"><g fill="none" fill-rule="evenodd" stroke="none" stroke-width="1"><g transform="translate(-16.000000, -15.000000)"><g transform="translate(16.000000, 15.000000)"><path d="M43.3186813,39.1211209 L43.4285008,27.2 L51.3486585,27.2734605 L51.3341912,28.838633 L45.2480854,28.7823794 L45.2178357,32.0543509 L50.5509873,32.1033245 L50.5365201,33.7035727 L45.2033684,33.654599 L45.1672003,37.567861 L51.6024928,37.6274236 L51.5880256,39.1972287 L43.3186813,39.1211209 Z M54.74583,34.5758337 L54.8129054,27.3052272 L56.6436692,27.3217724 L56.5785666,34.4050876 C56.5601537,36.353446 57.3808409,37.8491288 59.9639013,37.8729538 C62.4496366,37.8961171 63.1900964,36.5182359 63.2091668,34.4666356 L63.2742694,27.3833204 L65.1076636,27.3998656 L65.0412458,34.6704721 C65.0155993,37.4566775 63.4432731,39.4963652 59.7620175,39.4632749 C56.161647,39.4301846 54.7221563,37.1727625 54.74583,34.5758337 Z M68.5482369,39.3540768 L68.6573988,27.4329559 L72.0499671,27.4640608 C75.2801078,27.4938421 77.0096009,28.6288403 76.9885576,30.9703118 C76.9754056,32.3773124 76.1395935,33.5586371 74.5837073,34.1906623 L78.210382,39.2514968 L78.2090668,39.4427589 L76.1836528,39.4242283 L72.9936259,34.9160023 L70.4237176,34.8921772 L70.3822886,39.370622 L68.5482369,39.3540768 Z M73.5670548,33.3369319 C74.4002364,32.898816 75.1341202,32.2403185 75.1452994,31.0259035 C75.1584514,29.5421333 74.3417098,29.050411 72.0354999,29.0292332 L70.4776409,29.0146735 L70.4381848,33.3078124 L73.5670548,33.3369319 Z M79.5328194,33.4931182 C79.5617539,30.3257122 81.7127698,27.360819 85.7642553,27.398542 C89.7986431,27.4362649 91.8911325,30.4395429 91.862198,33.6062872 C91.8326059,36.7829585 89.6855356,39.7392482 85.6518054,39.7015253 C81.5996623,39.6638023 79.5032274,36.6691278 79.5328194,33.4931182 Z M89.9295059,33.5890802 C89.9538372,30.990166 88.5117162,29.0212916 85.7497881,28.9961429 C82.9668167,28.9703325 81.4885276,30.9120728 81.4641963,33.5103252 C81.4405226,36.1092394 82.8833013,38.0847319 85.6662726,38.1105424 C88.4282007,38.135691 89.9058322,36.1873326 89.9295059,33.5890802 Z M94.0046651,39.0370715 L94.0197899,37.3428468 L94.2065489,37.3448322 C95.3086897,37.8398635 96.6949145,38.2117988 97.8739948,38.2230495 C99.9934458,38.2422419 101.017332,37.5989659 101.027196,36.4752184 C101.037718,35.3633835 100.169683,34.8504834 98.9222123,34.4143529 L96.9954386,33.7512228 C95.2889616,33.1410372 94.4465736,32.1251642 94.4597256,30.6519828 C94.4781384,28.599059 96.4233249,27.4971511 99.1773618,27.5222998 C100.287394,27.5322269 101.932056,27.8359961 102.686326,28.2171966 L102.671201,29.7956052 L102.480496,29.7942816 C101.399399,29.3813143 100.026326,29.1278424 99.162237,29.1199007 C97.3748749,29.1033556 96.3036414,29.4441859 96.2931198,30.5705806 C96.2832557,31.5977044 97.0848725,31.9372111 98.0226128,32.2614963 L99.859295,32.9411716 C101.598652,33.5586371 102.888209,34.4507523 102.870454,36.4103614 C102.850726,38.5486583 100.902252,39.84249 97.8595276,39.8140324 C96.3989937,39.8001344 95.1022027,39.5129104 94.0046651,39.0370715 Z M109.011799,39.7266739 L109.106493,29.3713872 L104.885347,29.3316788 L104.899814,27.7671682 L115.109741,27.8604829 L115.095274,29.4263172 L110.94186,29.3879324 L110.846508,39.7432191 L109.011799,39.7266739 Z M115.068312,39.7822657 L115.070285,39.5910036 L119.774112,27.9041621 L122.080979,27.92534 L126.280425,39.6942454 L126.278452,39.8855075 L124.354967,39.8683005 L123.252168,36.6803785 L118.042646,36.6314048 L116.805039,39.798149 L115.068312,39.7822657 Z M122.705044,35.1092498 L120.772352,29.5811799 L118.644352,35.0721886 L122.705044,35.1092498 Z M129.014734,39.9106561 L129.124554,27.990197 L132.52041,28.0213019 C135.755811,28.0504214 137.477413,29.1860814 137.45637,31.5268911 C137.443218,32.9338917 136.611352,34.11654 135.046917,34.7479034 L138.686086,39.8087379 L138.68477,40 L136.65015,39.9814694 L133.462096,35.4725816 L130.898764,35.4494183 L130.857992,39.9278631 L129.014734,39.9106561 Z M134.045389,33.894173 C134.871994,33.4560571 135.604563,32.7968978 135.6164,31.5831446 C135.629552,30.0993744 134.818071,29.6076521 132.505943,29.5864743 L130.952687,29.5719146 L130.913888,33.8650535 L134.045389,33.894173 Z M140.737804,31.0785833 L140.760162,28.6034269 L139.934214,28.5954852 L139.938817,28.0739817 L142.245685,28.0951595 L142.241082,28.6160012 L141.419737,28.6093832 L141.397378,31.0845396 L140.737804,31.0785833 Z M145.312806,31.120608 L145.331219,29.1186433 L144.549988,30.3429854 L144.221844,30.3396763 L143.475466,29.1272468 L143.457053,31.1034011 L142.831674,31.0981066 L142.859293,28.1014467 L143.586601,28.1074029 L144.471733,29.5329342 L145.370017,28.1246099 L146,28.1299043 L145.972381,31.1265643 L145.312806,31.120608 Z" fill="#FBDD10"/><path d="M41.8658588,12.2077226 C42.5951801,11.2751719 43.2164538,10.2018345 43.6578677,9.14916295 C43.767233,8.88890122 43.8100567,8.59311989 43.8574923,8.31412965 C43.9108572,8.00155725 43.9352338,7.68575579 43.938528,7.36866272 C43.9767399,3.34719919 40.1054735,0.0522727583 35.2927436,0.00900343822 L34.3572096,0.000607898499 C28.0799077,-0.0555776365 23.71518,3.79603766 21.3012385,6.13064351 C16.2671428,11.0013482 12.9321615,17.3206063 12.0078274,24.3496105 C10.7784566,24.8068445 9.53986219,25.2382461 8.28545593,25.6250867 C7.15556794,25.9731787 6.01316224,26.2857511 4.85560352,26.5324508 C3.84891614,26.74686 2.82905223,26.9134792 1.80062357,26.9825809 C1.30386815,27.0161631 0.811065691,27.0245586 0.314310271,26.9871016 C0.0896503262,26.9703105 0.00136753269,27.4527312 4.98790531e-05,27.5941637 C-0.00785604275,28.3956148 0.92306625,29.5548451 3.50566737,29.5780943 C5.55330112,29.596177 8.54239839,28.9639283 11.7640615,28.0546268 C11.7634027,27.9538803 11.7634027,27.8537796 11.7647204,27.753679 C11.7311202,31.292076 12.5283006,34.4920683 14.0528259,36.4236882 C15.0430426,37.6784985 16.9832876,38.1919181 18.5203305,38.3462668 C20.5040581,38.5451766 22.5536683,38.1731896 24.4708543,37.5383576 C28.5391099,36.1905506 32.2179989,34.0102935 35.6485101,31.5045478 C36.1189125,31.1609765 36.5754795,30.7986766 37.0471995,30.4557511 C37.3720011,30.2200302 37.688238,29.9539562 38.007769,29.7046732 C38.3846179,29.412121 38.9722914,28.9038679 39.3227873,28.5803167 C39.4716821,28.442759 39.6199182,28.299389 39.7437776,28.1405196 C39.9203432,27.9144858 39.9901788,27.6232252 39.9776611,27.3410059 C39.9723905,27.2228225 39.9717317,27.0704112 39.9111196,26.965144 C39.8887195,26.9257496 39.8557782,26.8960423 39.8149309,26.8727931 C39.7365305,26.8282322 39.6904126,26.8682724 39.6126711,26.9050836 C39.285893,27.060724 38.9657031,27.227989 38.6474898,27.4010663 C38.2969939,27.5909347 37.9366157,27.7627203 37.5755786,27.9332144 C37.2402357,28.0907922 36.9180694,28.2748482 36.5800912,28.425968 C35.9621117,28.7010833 35.3612616,29.0000937 34.7518468,29.2894169 C34.4487865,29.4327869 34.1444085,29.5742195 33.8360776,29.7072565 C31.7732908,30.5978295 29.7111628,31.5013187 27.5699757,32.1955653 C25.3675176,32.909832 21.9291005,33.8501324 20.4651873,31.3256582 C19.8999139,30.3517756 19.8906903,29.138943 19.9005727,28.0488145 C19.9091375,27.142742 19.975679,26.241836 20.0909737,25.3493256 C21.4547452,24.8533429 22.8185167,24.3373401 24.1644999,23.8051921 C26.6001826,22.8409966 29.086595,21.8819676 31.6112194,20.9203554 C32.9789439,20.3991862 34.2998916,19.8399141 35.6959457,19.3962421 C36.9055517,19.0119847 38.1144989,18.6270815 39.3241049,18.2434699 C40.6766764,17.8133599 42.0305655,17.4775383 43.4305725,17.2818577 C46.3353399,16.8762885 49.1834483,16.9505568 52.0789921,17.3838958 C53.3788574,17.5782848 54.6675227,17.8353175 55.9456467,18.1343279 C58.4221767,18.7149117 60.8532477,19.464698 63.2803657,20.2177134 C67.1621733,21.4221504 70.9352744,22.020817 74.9640004,22.409595 C75.6201919,22.4735303 76.2783599,22.5135706 76.9371868,22.5322991 C80.4994634,22.6336914 84.0808459,22.1267299 87.4896159,21.1444518 C89.5365908,20.5548266 91.5137301,19.741105 93.397316,18.754952 C93.5027282,18.7000581 93.6074817,18.6445184 93.7115763,18.587687 C94.2577438,18.2925515 94.7920523,17.9767501 95.3026431,17.6344704 C96.0991647,17.1010307 96.8673568,16.5249675 97.5920663,15.9004685 C97.9557387,15.5885419 98.3075522,15.2636991 98.6475069,14.9265859 C98.9380495,14.6372627 99.3135808,14.3434188 99.4328284,13.9423703 C99.5059582,13.6995455 99.4670874,13.503219 99.4044989,13.2616858 C99.3755105,13.1499605 99.2984278,13.0543805 99.187086,13.1015247 C98.8056253,13.2636232 98.4465647,13.4851363 98.0743275,13.6691924 C97.3008648,14.0508665 96.5142256,14.4060624 95.7150687,14.7321969 C94.0047543,15.4283808 92.2311925,15.9863613 90.4543366,16.3195997 C85.4591116,17.2566711 80.0540964,17.577639 75.0127536,16.8995377 C69.9654814,16.2201448 65.0901629,14.6986147 60.1028439,13.721503 C58.5625068,13.4205552 57.0168991,13.1460857 55.4627266,12.92651 C53.890107,12.7043511 52.3095815,12.5383778 50.7224677,12.4602347 C49.1406245,12.3814457 47.5521931,12.3904871 45.9723263,12.517066 C44.4188127,12.6384784 42.8824286,12.9071357 41.3315502,13.0569638 C41.2986089,13.0601928 41.2597381,13.0608386 41.237338,13.0362978 C41.2050555,12.9988408 41.2399733,12.9426553 41.2742323,12.9058441 C41.4778098,12.684331 41.6754578,12.4511933 41.8658588,12.2077226 M36.3727273,12.9690274 C33.4402805,15.6677503 31.0169581,16.3986411 27.3637669,18.0115972 C25.2214592,18.9320968 23.0358657,19.8788598 20.8578299,20.8 L20.8571429,20.8 C22.0615897,17.1673255 23.9297535,13.7261816 26.2012318,10.5790594 C27.3603315,8.9731495 28.3565939,8.1045361 29.9354981,6.82595767 C31.9032881,5.23285919 35.3373015,3.67371094 37.4631193,5.92915917 C38.3563201,6.8772033 38.6387089,8.19869994 38.4497626,9.45101499 C38.2113467,11.0325832 37.5675551,11.8704492 36.3727273,12.9690274" fill="#FFFFFF"/></g></g></g></svg>