<svg id="Laag_1" data-name="Laag 1" xmlns="http://www.w3.org/2000/svg" viewBox="0 0 451.62 427.35"><defs><style>.cls-1{fill:#ffe600;}</style></defs><title>facebook</title><path class="cls-1" d="M396.61,21.68H55a21.21,21.21,0,0,0-21.2,21.2v341.6A21.21,21.21,0,0,0,55,405.68h170.8v-152h-45.9v-56h45.9v-41.4c0-49.6,34.4-76.6,78.7-76.6,21.2,0,44,1.6,49.3,2.3v51.8h-35.3c-24.1,0-28.7,11.4-28.7,28.2v35.7h57.4l-7.5,56h-49.9v152h106.8a21.21,21.21,0,0,0,21.2-21.2V42.88A21.21,21.21,0,0,0,396.61,21.68Z"/></svg>