<?xml version="1.0" encoding="utf-8"?>
<!-- Generator: Adobe Illustrator 21.1.0, SVG Export Plug-In . SVG Version: 6.00 Build 0)  -->
<svg version="1.1" id="Laag_1" xmlns="http://www.w3.org/2000/svg" xmlns:xlink="http://www.w3.org/1999/xlink" x="0px" y="0px"
	 viewBox="0 0 19.7 20.3" style="enable-background:new 0 0 19.7 20.3;" xml:space="preserve">
<style type="text/css">
	.st0{fill:#FFFFFF;stroke:#FFFFFF;stroke-width:0.75;stroke-miterlimit:10;}
</style>
<g>
	<path class="st0" d="M19.1,6.3c-0.3-3.2-2.4-5.5-5-5.5c-1.7,0-3.4,1.1-4.3,2.7c-1-1.7-2.5-2.7-4.3-2.7c-2.7,0-4.8,2.3-5,5.5
		c0,0.1-0.1,0.9,0.2,2.1c0.4,1.7,1.3,3.4,2.6,4.6l6.5,6.4l6.6-6.4c1.3-1.3,2.2-2.9,2.6-4.6C19.2,7.2,19.1,6.5,19.1,6.3z M18.3,8.3
		c-0.4,1.6-1.2,3.1-2.3,4.3l-6.1,5.9l-6-5.9c-1.4-1.2-2.1-2.6-2.5-4.3C1.1,7.1,1.2,6.4,1.2,6.4l0,0c0.2-2.8,2-4.8,4.4-4.8
		c1.6,0,3.2,1.1,3.9,2.9l0.3,0.9L10,4.5c0.7-1.7,2.2-2.9,4-2.9c2.3,0,4.1,2,4.4,4.9C18.4,6.4,18.6,7.1,18.3,8.3z"/>
</g>
</svg>
