<svg id="Laag_1" data-name="Laag 1" xmlns="http://www.w3.org/2000/svg" viewBox="0 0 204.17 117.15"><defs><style>.cls-1{fill:#5eb6c8;}</style></defs><title>filterpijl</title><path class="cls-1" d="M110.2,128.3c-7.11.08-9.8-4.83-13.26-8.26C69.17,92.45,41.6,64.68,13.82,37.1c-6.53-6.48-12.31-11.34-2.6-21s14.66-3.38,21,3c21,21.06,42.6,41.49,62.87,63.19,10,10.71,16.52,9.91,26.14-.26,20.41-21.58,42-42,62.91-63.16,6.54-6.6,11.42-12.1,21-2.56,9.89,9.83,3.34,14.63-3,20.92q-41.6,41.43-83.07,83C116.08,123.26,112.77,126,110.2,128.3Z" transform="translate(-6.05 -11.14)"/></svg>