<svg id="Laag_1" data-name="Laag 1" xmlns="http://www.w3.org/2000/svg" viewBox="0 0 451.62 427.35"><defs><style>.cls-1{fill:#ffe600;}.cls-2{fill:#fff;}</style></defs><title>instagram</title><rect class="cls-1" x="33.15" y="26.37" width="385.31" height="384" rx="14.37"/><rect class="cls-2" x="93.89" y="86.9" width="263.85" height="262.95" rx="14.37"/><path class="cls-1" d="M266.56,188.55a41.77,41.77,0,0,0-68.22,0,43.29,43.29,0,0,0-7.91,24.67,42,42,0,0,0,84,0A43.29,43.29,0,0,0,266.56,188.55Z"/><path class="cls-1" d="M293.05,188.86c3,6.09,4.87,15.83,4.87,24.36a65.47,65.47,0,0,1-130.94,0c0-8.83,1.82-18.27,4.87-24.36H135v97.75c0,12.79,11.27,24.06,24.06,24.06H305.84c12.79,0,24.06-11.27,24.06-24.06V188.86Z"/><polygon class="cls-1" points="318.93 121.25 283.61 121.25 283.61 161.75 323.81 161.75 323.81 126.43 323.81 120.95 318.93 121.25"/></svg>