<svg id="Laag_1" data-name="Laag 1" xmlns="http://www.w3.org/2000/svg" width="103.66mm" height="18.07mm" viewBox="0 0 293.83 51.21"><defs><style>.cls-1{fill:#e7e6e7;}</style></defs><title>rating</title><path class="cls-1" d="M53.28,42a1.6,1.6,0,0,1-1.41-1L46.05,23.1c-.18-.56-.48-.56-.66,0L39.57,41a1.6,1.6,0,0,1-1.41,1H19.32c-.6,0-.69.28-.21.64L34.35,53.75a1.58,1.58,0,0,1,.54,1.65L29.07,73.32c-.18.56.06.74.54.39L44.85,62.64a1.57,1.57,0,0,1,1.74,0L61.83,73.71c.48.35.72.17.54-.39L56.55,55.4a1.56,1.56,0,0,1,.54-1.65L72.33,42.68c.48-.35.39-.64-.21-.64Z" transform="translate(-18.8 -22.68)"/><path class="cls-1" d="M113.28,42a1.6,1.6,0,0,1-1.41-1L106.05,23.1c-.18-.56-.48-.56-.66,0L99.57,41a1.6,1.6,0,0,1-1.41,1H79.32c-.6,0-.69.28-.21.64L94.35,53.75a1.58,1.58,0,0,1,.54,1.65L89.07,73.32c-.18.56.06.74.54.39l15.24-11.07a1.57,1.57,0,0,1,1.74,0l15.24,11.07c.48.35.72.17.54-.39L116.55,55.4a1.56,1.56,0,0,1,.54-1.65l15.24-11.07c.48-.35.39-.64-.21-.64Z" transform="translate(-18.8 -22.68)"/><path class="cls-1" d="M173.28,42a1.6,1.6,0,0,1-1.41-1L166.05,23.1c-.18-.56-.48-.56-.66,0L159.57,41a1.6,1.6,0,0,1-1.41,1H139.32c-.6,0-.69.28-.21.64l15.24,11.07a1.58,1.58,0,0,1,.54,1.65l-5.82,17.92c-.18.56.06.74.54.39l15.24-11.07a1.57,1.57,0,0,1,1.74,0l15.24,11.07c.48.35.72.17.54-.39L176.55,55.4a1.56,1.56,0,0,1,.54-1.65l15.24-11.07c.48-.35.39-.64-.21-.64Z" transform="translate(-18.8 -22.68)"/><path class="cls-1" d="M233.28,42a1.6,1.6,0,0,1-1.41-1L226.05,23.1c-.18-.56-.48-.56-.66,0L219.57,41a1.6,1.6,0,0,1-1.41,1H199.32c-.6,0-.69.28-.21.64l15.24,11.07a1.58,1.58,0,0,1,.54,1.65l-5.82,17.92c-.18.56.06.74.54.39l15.24-11.07a1.57,1.57,0,0,1,1.74,0l15.24,11.07c.48.35.72.17.54-.39L236.55,55.4a1.56,1.56,0,0,1,.54-1.65l15.24-11.07c.48-.35.39-.64-.21-.64Z" transform="translate(-18.8 -22.68)"/><path class="cls-1" d="M293.28,42a1.6,1.6,0,0,1-1.41-1L286.05,23.1c-.18-.56-.48-.56-.66,0L279.57,41a1.6,1.6,0,0,1-1.41,1H259.32c-.6,0-.69.28-.21.64l15.24,11.07a1.58,1.58,0,0,1,.54,1.65l-5.82,17.92c-.18.56.06.74.54.39l15.24-11.07a1.57,1.57,0,0,1,1.74,0l15.24,11.07c.48.35.72.17.54-.39L296.55,55.4a1.56,1.56,0,0,1,.54-1.65l15.24-11.07c.48-.35.39-.64-.21-.64Z" transform="translate(-18.8 -22.68)"/></svg>