<?xml version="1.0" encoding="utf-8"?>
<!-- Generator: Adobe Illustrator 24.0.1, SVG Export Plug-In . SVG Version: 6.00 Build 0)  -->
<svg version="1.1" id="Laag_1" xmlns="http://www.w3.org/2000/svg" xmlns:xlink="http://www.w3.org/1999/xlink" x="0px" y="0px"
	 viewBox="0 0 330.04 106.41" style="enable-background:new 0 0 330.04 106.41;" xml:space="preserve">
<style type="text/css">
	.st0{fill:#FFFFFF;}
</style>
<g>
	<path class="st0" d="M53.28,42.04c-0.59,0-1.23-0.46-1.41-1.02L46.05,23.1c-0.18-0.57-0.48-0.57-0.67,0l-5.82,17.92
		c-0.18,0.57-0.82,1.02-1.41,1.02H19.32c-0.59,0-0.69,0.28-0.21,0.63l15.24,11.07c0.48,0.35,0.72,1.09,0.54,1.66l-5.82,17.91
		c-0.18,0.57,0.06,0.74,0.54,0.39l15.24-11.07c0.48-0.35,1.26-0.35,1.74,0l15.24,11.07c0.48,0.35,0.72,0.17,0.54-0.39L56.55,55.4
		c-0.18-0.57,0.06-1.31,0.54-1.66l15.24-11.07c0.48-0.35,0.39-0.63-0.21-0.63L53.28,42.04L53.28,42.04z"/>
</g>
<g>
	<path class="st0" d="M113.28,42.04c-0.59,0-1.23-0.46-1.41-1.02l-5.82-17.92c-0.18-0.57-0.48-0.57-0.67,0l-5.82,17.92
		c-0.18,0.57-0.82,1.02-1.41,1.02H79.32c-0.59,0-0.69,0.28-0.21,0.63l15.24,11.07c0.48,0.35,0.72,1.09,0.54,1.66l-5.82,17.91
		c-0.18,0.57,0.06,0.74,0.54,0.39l15.24-11.07c0.48-0.35,1.26-0.35,1.74,0l15.24,11.07c0.48,0.35,0.72,0.17,0.54-0.39l-5.82-17.91
		c-0.18-0.57,0.06-1.31,0.54-1.66l15.24-11.07c0.48-0.35,0.39-0.63-0.21-0.63L113.28,42.04L113.28,42.04z"/>
</g>
<g>
	<path class="st0" d="M173.28,42.04c-0.59,0-1.23-0.46-1.41-1.02l-5.82-17.92c-0.18-0.57-0.48-0.57-0.67,0l-5.82,17.92
		c-0.18,0.57-0.82,1.02-1.41,1.02h-18.84c-0.59,0-0.69,0.28-0.21,0.63l15.24,11.07c0.48,0.35,0.72,1.09,0.54,1.66l-5.82,17.91
		c-0.18,0.57,0.06,0.74,0.54,0.39l15.24-11.07c0.48-0.35,1.26-0.35,1.74,0l15.24,11.07c0.48,0.35,0.72,0.17,0.54-0.39l-5.82-17.91
		c-0.18-0.57,0.06-1.31,0.54-1.66l15.24-11.07c0.48-0.35,0.39-0.63-0.21-0.63L173.28,42.04L173.28,42.04z"/>
</g>
<g>
	<path class="st0" d="M233.28,42.04c-0.59,0-1.23-0.46-1.41-1.02l-5.82-17.92c-0.18-0.57-0.48-0.57-0.67,0l-5.82,17.92
		c-0.18,0.57-0.82,1.02-1.41,1.02h-18.84c-0.59,0-0.69,0.28-0.21,0.63l15.24,11.07c0.48,0.35,0.72,1.09,0.54,1.66l-5.82,17.91
		c-0.18,0.57,0.06,0.74,0.54,0.39l15.24-11.07c0.48-0.35,1.26-0.35,1.74,0l15.24,11.07c0.48,0.35,0.72,0.17,0.54-0.39l-5.82-17.91
		c-0.18-0.57,0.06-1.31,0.54-1.66l15.24-11.07c0.48-0.35,0.39-0.63-0.21-0.63L233.28,42.04L233.28,42.04z"/>
</g>
<g>
	<path class="st0" d="M293.28,42.04c-0.59,0-1.23-0.46-1.41-1.02l-5.82-17.92c-0.18-0.57-0.48-0.57-0.67,0l-5.82,17.92
		c-0.18,0.57-0.82,1.02-1.41,1.02h-18.84c-0.59,0-0.69,0.28-0.21,0.63l15.24,11.07c0.48,0.35,0.72,1.09,0.54,1.66l-5.82,17.91
		c-0.18,0.57,0.06,0.74,0.54,0.39l15.24-11.07c0.48-0.35,1.26-0.35,1.74,0l15.24,11.07c0.48,0.35,0.72,0.17,0.54-0.39l-5.82-17.91
		c-0.18-0.57,0.06-1.31,0.54-1.66l15.24-11.07c0.48-0.35,0.39-0.63-0.21-0.63L293.28,42.04L293.28,42.04z"/>
</g>
</svg>
