<svg id="Laag_1" data-name="Laag 1" xmlns="http://www.w3.org/2000/svg" viewBox="0 0 451.62 427.35"><defs><style>.cls-1{fill:#ffe600;}.cls-2{fill:#fff;}</style></defs><title>twitter</title><rect class="cls-1" x="33.15" y="26.37" width="385.31" height="384" rx="14.37"/><path class="cls-2" d="M311.06,174.68c.07,1.87.15,3.82.15,5.69,0,58.11-44.26,125.2-125.2,125.2h0a124.41,124.41,0,0,1-67.46-19.77,98.29,98.29,0,0,0,10.48.6,88.21,88.21,0,0,0,54.66-18.87A44.17,44.17,0,0,1,142.58,237a43.69,43.69,0,0,0,8.24.82,42.17,42.17,0,0,0,11.61-1.57,44,44,0,0,1-35.27-43.13v-.6A42.75,42.75,0,0,0,147.08,198a43.83,43.83,0,0,1-19.55-36.62,43.28,43.28,0,0,1,6-22.09,125,125,0,0,0,90.68,46,44.17,44.17,0,0,1,42.9-54.06,43.75,43.75,0,0,1,32.13,13.92,85.86,85.86,0,0,0,27.93-10.7,44.36,44.36,0,0,1-19.32,24.33,86.32,86.32,0,0,0,25.23-7A89.05,89.05,0,0,1,311.06,174.68Z"/></svg>