<svg id="Laag_1" data-name="Laag 1" xmlns="http://www.w3.org/2000/svg" viewBox="0 0 451.62 427.35"><defs><style>.cls-1{fill:#ffe600;}</style></defs><title>instagram</title><path class="cls-1" d="M404.09,26.37H47.52A14.42,14.42,0,0,0,33.15,40.74V396a14.42,14.42,0,0,0,14.37,14.37H404.09A14.42,14.42,0,0,0,418.47,396V40.74A14.42,14.42,0,0,0,404.09,26.37ZM283.61,125.25h35.32l4.88-.3v40.8h-40.2Zm-85.27,67.3a41.77,41.77,0,0,1,68.22,0,43.29,43.29,0,0,1,7.91,24.67,42,42,0,0,1-84,0A43.29,43.29,0,0,1,198.34,192.55ZM329.9,290.61c0,12.79-11.27,24.06-24.06,24.06H159.06c-12.79,0-24.06-11.27-24.06-24.06V192.86h36.85c-3,6.09-4.87,15.53-4.87,24.36a65.47,65.47,0,0,0,130.94,0c0-8.53-1.83-18.27-4.87-24.36H329.9Z"/></svg>