<svg id="Laag_1" data-name="Laag 1" xmlns="http://www.w3.org/2000/svg" viewBox="0 0 451.62 427.35"><defs><style>.cls-1{fill:#ffe600;}</style></defs><title>twitter</title><path class="cls-1" d="M404.09,26.37H47.52A14.42,14.42,0,0,0,33.15,40.74V396a14.42,14.42,0,0,0,14.37,14.37H404.09A14.42,14.42,0,0,0,418.47,396V40.74A14.42,14.42,0,0,0,404.09,26.37Zm-93,148.31c.07,1.87.15,3.82.15,5.69,0,58.11-44.26,125.2-125.2,125.2a124.48,124.48,0,0,1-67.46-19.77,98.29,98.29,0,0,0,10.48.6,88.21,88.21,0,0,0,54.66-18.87A44.17,44.17,0,0,1,142.58,237a43.69,43.69,0,0,0,8.24.82,42.17,42.17,0,0,0,11.61-1.57,44,44,0,0,1-35.27-43.13v-.6A42.75,42.75,0,0,0,147.08,198a43.83,43.83,0,0,1-19.55-36.62,43.18,43.18,0,0,1,6-22.09,125,125,0,0,0,90.68,46,44.17,44.17,0,0,1,42.9-54.06,43.75,43.75,0,0,1,32.13,13.92,85.72,85.72,0,0,0,27.92-10.7,44.3,44.3,0,0,1-19.31,24.33,86.32,86.32,0,0,0,25.23-7A89.05,89.05,0,0,1,311.06,174.68Z"/></svg>